<svg width="56" height="56" viewBox="0 0 56 56" fill="none" xmlns="http://www.w3.org/2000/svg">
<circle cx="28" cy="28" r="28" fill="#3090F8"/>
<path d="M39.875 16.947L38.515 17.3455L14.1752 24.75H10.125V33.25H14.1763L16.2673 33.8811L16.2354 33.98V34.014C15.5533 36.258 16.8166 38.7527 19.1573 39.4582C19.1679 39.4614 19.1807 39.455 19.1892 39.4582C21.4449 40.1435 23.9417 38.8951 24.6356 36.5363L24.6674 36.4365L38.515 40.6546L39.875 41.052V16.947ZM37.75 19.803V38.197L14.6725 31.1569L14.5418 31.125H12.25V26.875H14.5408L14.6736 26.8431L37.75 19.803ZM18.2924 34.5112L22.6423 35.8075L22.6104 35.9063V35.9381C22.2449 37.1813 20.9253 37.789 19.7884 37.4331C18.5453 37.0686 17.9057 35.782 18.2606 34.644V34.6121L18.2924 34.5112Z" fill="#FEFDFD"/>
</svg>
