<svg width="56" height="56" viewBox="0 0 56 56" fill="none" xmlns="http://www.w3.org/2000/svg">
<circle cx="28" cy="28" r="28" fill="#3090F8"/>
<path d="M25.3337 37.244H30.667C30.8438 37.244 31.0134 37.1737 31.1384 37.0487C31.2634 36.9237 31.3337 36.7541 31.3337 36.5773C31.3337 36.4005 31.2634 36.2309 31.1384 36.1059C31.0134 35.9809 30.8438 35.9106 30.667 35.9106H25.3337C25.1568 35.9106 24.9873 35.9809 24.8623 36.1059C24.7372 36.2309 24.667 36.4005 24.667 36.5773C24.667 36.7541 24.7372 36.9237 24.8623 37.0487C24.9873 37.1737 25.1568 37.244 25.3337 37.244Z" fill="#FEFDFD"/>
<path d="M34.3027 41.2493H21.6974C20.8609 41.1994 20.0779 40.8212 19.5188 40.1969C18.9597 39.5727 18.6698 38.7529 18.7121 37.9159V18.0839C18.6698 17.247 18.9597 16.4272 19.5188 15.803C20.0779 15.1787 20.8609 14.8005 21.6974 14.7506H34.3027C35.1392 14.8005 35.9222 15.1787 36.4813 15.803C37.0404 16.4272 37.3303 17.247 37.2881 18.0839V37.9159C37.3303 38.7529 37.0404 39.5727 36.4813 40.1969C35.9222 40.8212 35.1392 41.1994 34.3027 41.2493ZM21.6974 16.0839C21.2151 16.1349 20.772 16.3728 20.4632 16.7467C20.1543 17.1207 20.0043 17.6007 20.0454 18.0839V37.9159C20.0043 38.3992 20.1543 38.8792 20.4632 39.2531C20.772 39.627 21.2151 39.865 21.6974 39.9159H34.3027C34.785 39.865 35.2281 39.627 35.537 39.2531C35.8458 38.8792 35.9958 38.3992 35.9547 37.9159V18.0839C35.9958 17.6007 35.8458 17.1207 35.537 16.7467C35.2281 16.3728 34.785 16.1349 34.3027 16.0839H21.6974Z" fill="#FEFDFD"/>
</svg>
