<svg width="98" height="56" viewBox="0 0 98 56" fill="none" xmlns="http://www.w3.org/2000/svg">
<circle cx="28" cy="28" r="28" fill="#3090F8"/>
<path d="M27.9997 42.1667C35.8237 42.1667 42.1663 35.8241 42.1663 28C42.1663 20.176 35.8237 13.8334 27.9997 13.8334C20.1756 13.8334 13.833 20.176 13.833 28C13.833 35.8241 20.1756 42.1667 27.9997 42.1667Z" stroke="#FEFCFC" stroke-width="1.5" stroke-linecap="round" stroke-linejoin="round"/>
<path d="M22.3329 15.25H23.7496C20.9871 23.5233 20.9871 32.4767 23.7496 40.75H22.3329" stroke="#FEFCFC" stroke-width="1.5" stroke-linecap="round" stroke-linejoin="round"/>
<path d="M32.25 15.25C35.0125 23.5233 35.0125 32.4767 32.25 40.75" stroke="#FEFCFC" stroke-width="1.5" stroke-linecap="round" stroke-linejoin="round"/>
<path d="M15.25 33.6667V32.25C23.5233 35.0125 32.4767 35.0125 40.75 32.25V33.6667" stroke="#FEFCFC" stroke-width="1.5" stroke-linecap="round" stroke-linejoin="round"/>
<path d="M15.25 23.75C23.5233 20.9875 32.4767 20.9875 40.75 23.75" stroke="#FEFCFC" stroke-width="1.5" stroke-linecap="round" stroke-linejoin="round"/>
</svg>
